<svg id="EVORE" xmlns="http://www.w3.org/2000/svg" viewBox="0 0 474.45 119.52"><defs><style>.cls-1{fill:#1d1d1b;}</style></defs><title>NEGRO</title><path class="cls-1" d="M163.87,76.22V43.3c0-13-1.37-15.81-1.37-15.81h45.27v4.07s-4.09-2.22-23.45-2.22H167.87V54.21h30.9v4.07S196.13,56,183.41,56H167.87V90.18H187C206.4,90.18,210.5,88,210.5,88V92h-48S163.87,89.26,163.87,76.22Z"/><path class="cls-1" d="M215.13,27.49h7s-.28,2.77,4.72,15.81l17.91,46.33L263.21,43.3c5.18-13,3.82-15.81,3.82-15.81h5.82s-2.46,2.68-7.46,15.16L245.76,92h-4.27l-19-49C217.58,30.17,215.13,27.49,215.13,27.49Z"/><path class="cls-1" d="M274.07,59.67c0-18.5,14.45-33.39,32.36-33.39s32.36,14.89,32.36,33.39-14.46,33.38-32.36,33.38S274.07,78.16,274.07,59.67Zm60.81,0c0-17.48-12.73-31.63-28.45-31.63S278,42.19,278,59.67s12.72,31.62,28.45,31.62S334.88,77.15,334.88,59.67Z"/><path class="cls-1" d="M346.1,76.22V43.3c0-13-1.36-15.81-1.36-15.81h28.63c11,0,19.91,9.34,19.91,20.8s-8.73,20.63-19.55,20.81L381,76.5C393.55,89.35,397.64,92,397.64,92h-8.36S388,89.35,375.73,76.87l-7.54-7.77H350.1v7.12c0,13,1.36,15.81,1.36,15.81h-6.72S346.1,89.26,346.1,76.22Zm43.27-27.93c0-10.35-7.18-18.95-16-18.95H350.1V67.25h23.27C382.19,67.25,389.37,58.65,389.37,48.29Z"/><path class="cls-1" d="M403.73,76.22V43.3c0-13-1.37-15.81-1.37-15.81h45.27v4.07s-4.09-2.22-23.45-2.22H407.72V54.21h30.91v4.07S436,56,423.27,56H407.72V90.18H426.9c19.36,0,23.45-2.21,23.45-2.21V92h-48S403.73,89.26,403.73,76.22Z"/><path d="M132.51,80.73a88.84,88.84,0,0,0-10.58-4.88s-1.06-.37-1-.67c.16-.91,2.08-1.17,7.25-8.06,5.35-7.14,6.47-10.49,7.48-13.42.86-2.49,1.79-8.27,1.29-8.87s-6.86-1-12.4.22c-5.31,1.2-8.35,2.62-8.65,2.28-.48-.53.71-4.69.83-8.52a36.63,36.63,0,0,0-.3-8.65c-.47-3-1.11-5.7-2-5.95s-3.76.62-5.26,1.27a62.18,62.18,0,0,0-7.26,4.28c-2.19,1.52-4.91,4.13-5.68,4.29s-2.1-4.53-5.19-9.9a64.94,64.94,0,0,0-4.29-6.84C85.44,15.47,83.05,12,81.26,12h0c-1.79,0-4.17,3.45-5.48,5.29a63.75,63.75,0,0,0-4.28,6.84c-3.1,5.37-4.34,10.07-5.19,9.9s-3.56-2.86-5.75-4.37a60.26,60.26,0,0,0-7.2-4.2c-1.5-.65-4.37-1.53-5.26-1.27s-1.53,3-2,5.95a36.08,36.08,0,0,0-.31,8.65c.12,3.83,1.32,8,.84,8.52-.3.34-3.35-1.08-8.66-2.28-5.53-1.24-11.82-.92-12.4-.22s.44,6.38,1.29,8.87c1,2.93,2.13,6.28,7.49,13.42,5.17,6.89,7.08,7.15,7.24,8.06.06.3-1,.67-1,.67A88.84,88.84,0,0,0,30,80.73c-2.76,1.7-5.9,4.24-5.9,5.54,0,1.59,2.67,3.48,6.14,5.78s11.55,5.88,20.12,5.07c9.65-.91,15.56-5.42,16.37-5.07.37.16.08,3.94,3.88,7.86,3.34,3.43,8,7.5,10.65,7.5s7.31-4.07,10.65-7.5c3.8-3.92,3.51-7.7,3.88-7.86.81-.35,6.73,4.16,16.37,5.07,8.58.81,16.61-2.75,20.13-5.07s6.14-4.19,6.13-5.78C138.41,85,135.27,82.43,132.51,80.73ZM120.37,48.38c6.29-2.14,13.77-2.27,14.29-1.59s-.51,11.81-13.15,24.48c-8.57,8.59-16.05,9.66-22.83,10.46a49.69,49.69,0,0,1-12.32-.54,26.06,26.06,0,0,0,8.55-9c3.31-5.9,4.74-10.88,10.5-15.29S114.07,50.51,120.37,48.38ZM104.31,30.92c5.53-3.75,8.42-4.45,8.92-4.12s1.29,3.49,1.25,9.2a88,88,0,0,1-1.28,12.24s-1.74.95-6.5,4.28a38.24,38.24,0,0,0-7.13,6.11,56.1,56.1,0,0,0-.32-12A73.79,73.79,0,0,0,97,37.13S98.78,34.67,104.31,30.92Zm-33-1.39c3-6,8.24-14.66,9.91-14.66s7,8.68,9.91,14.66a59.24,59.24,0,0,1,6.13,25,32.38,32.38,0,0,1-7.47,20c-3.88,4.88-8.13,6.14-8.57,6.14s-4.69-1.26-8.57-6.14a32.38,32.38,0,0,1-7.47-20A59.24,59.24,0,0,1,71.35,29.53ZM49.29,26.8c.5-.33,3.4.37,8.92,4.12s7.36,6.21,7.36,6.21a72.86,72.86,0,0,0-2.3,9.53,56.1,56.1,0,0,0-.32,12,38.24,38.24,0,0,0-7.13-6.11c-4.76-3.33-6.5-4.28-6.5-4.28A88,88,0,0,1,48,36C48,30.29,48.77,27.14,49.29,26.8ZM41,71.27C28.37,58.6,27.35,47.47,27.86,46.79s8-.55,14.3,1.59,9.19,4.14,15,8.54,7.2,9.39,10.5,15.29a26.06,26.06,0,0,0,8.55,9,49.69,49.69,0,0,1-12.32.54C57.06,80.93,49.58,79.86,41,71.27ZM62.77,91.11a31.75,31.75,0,0,1-17.52,3.76c-4.91-.33-8.86-2.14-12.74-4.16s-5.77-3.82-5.77-4.54,3.57-3.23,6.92-4.81a85.68,85.68,0,0,1,9-3.93c.81-.28,1-.05,2.33.69a30.76,30.76,0,0,0,9.68,4.43,107,107,0,0,0,14,2S66.75,89.14,62.77,91.11Zm25.1,9.17c-4.37,4.22-6,4.41-6.61,4.41s-2.24-.19-6.61-4.41-6.23-8.18-4.86-12.1a5.72,5.72,0,0,1,1.6-2.69c2.73-2.62,9.86-2.33,9.86-2.33h0s7.12-.29,9.85,2.33a5.72,5.72,0,0,1,1.6,2.69C94.1,92.1,92.23,96.06,87.87,100.28ZM130,90.71c-3.88,2-7.83,3.83-12.74,4.16a31.75,31.75,0,0,1-17.52-3.76c-4-2-6-6.58-6-6.58a107,107,0,0,0,14-2,30.63,30.63,0,0,0,9.68-4.43c1.39-.74,1.52-1,2.34-.69a86.72,86.72,0,0,1,9,3.93c3.36,1.58,6.92,4.1,6.92,4.81S134,88.63,130,90.71Z"/></svg>