<svg version="1.1" id="Layer_1" xmlns="http://www.w3.org/2000/svg" xmlns:xlink="http://www.w3.org/1999/xlink" x="0px" y="0px"
	 width="100%" viewBox="0 0 1024 672" xml:space="preserve">
<path fill="#FFFFFF" opacity="1.000000" stroke="none" 
	d="
M308.108246,376.842712 
	C296.676208,361.961548 288.232056,345.987366 284.782654,327.779205 
	C279.232117,298.480103 287.978394,272.894562 305.756531,249.794510 
	C309.529846,244.891678 313.881805,240.536972 318.236725,236.168961 
	C320.150360,234.249527 321.642609,234.118820 323.682739,236.085312 
	C344.630402,256.276794 358.255035,280.119537 358.847717,309.806305 
	C359.254303,330.170807 352.465118,348.712036 341.666687,365.854218 
	C336.491180,374.070251 330.329834,381.475403 323.769409,388.601501 
	C321.592590,390.965973 319.966614,390.753784 318.071960,388.515381 
	C314.844086,384.701904 311.579315,380.919647 308.108246,376.842712 
z"/>
<path fill="#FFFFFF" opacity="1.000000" stroke="none" 
	d="
M338.449860,379.481995 
	C352.088257,359.194824 368.442902,342.581757 391.181702,333.166290 
	C409.687286,325.503662 428.685577,325.078705 448.031891,328.768768 
	C448.841400,328.923157 449.629730,329.226959 450.400757,329.530212 
	C450.848267,329.706207 451.241547,330.020020 452.342834,330.683929 
	C445.153961,355.763275 431.504700,376.214081 408.314545,388.958679 
	C383.224884,402.747162 356.632538,404.438660 328.445526,396.176880 
	C331.180695,389.697479 334.991364,384.894226 338.449860,379.481995 
z"/>
<path fill="#FFFFFF" opacity="1.000000" stroke="none" 
	d="
M270.102600,343.830505 
	C289.033203,357.439423 301.849976,375.660767 313.998108,395.972717 
	C288.470306,403.773071 264.338928,402.886322 240.818390,392.454834 
	C213.693024,380.424561 198.384323,358.424164 189.366592,329.981049 
	C218.761398,322.980316 245.394592,326.485016 270.102600,343.830505 
z"/>
<path fill="#FFFFFF" opacity="1.000000" stroke="none" 
	d="
M707.048584,329.407471 
	C709.081543,351.384186 699.919312,364.810059 680.524658,368.819092 
	C659.268616,373.212860 640.618408,361.142822 637.329834,340.864258 
	C635.219604,327.851776 643.168823,313.615570 656.049866,308.136444 
	C667.143066,303.417786 678.480835,303.449310 689.527954,308.327515 
	C698.590271,312.329315 704.305481,319.445679 707.048584,329.407471 
M689.917175,324.678406 
	C682.333923,315.945679 670.107056,313.823273 660.627991,319.594177 
	C652.522095,324.529083 648.852356,335.470032 652.257202,344.550507 
	C656.565552,356.040436 670.741760,361.224396 682.742371,355.698242 
	C693.549377,350.721771 696.988464,336.971924 689.917175,324.678406 
z"/>
<path fill="#FFFFFF" opacity="1.000000" stroke="none" 
	d="
M768.694214,353.356201 
	C772.070923,358.215790 775.998535,362.294159 778.541321,367.477325 
	C768.542908,370.143463 764.823303,368.904968 759.479309,361.476257 
	C758.604797,360.260529 757.345337,359.221588 756.803955,357.882568 
	C753.297241,349.209595 745.962524,350.018036 738.745483,350.346588 
	C736.123901,350.465912 735.341125,351.929474 735.357727,354.266388 
	C735.381409,357.596039 735.231445,360.929749 735.346558,364.255096 
	C735.449280,367.224915 734.221436,368.299316 731.239136,368.442261 
	C721.718811,368.898438 721.675415,368.959839 721.675720,359.633270 
	C721.676331,343.649200 721.805786,327.663513 721.601685,311.682068 
	C721.545288,307.267181 722.671082,305.397552 727.442810,305.589203 
	C735.920715,305.929749 744.422180,305.713104 752.913513,305.679047 
	C756.631287,305.664124 760.180359,306.438995 763.653992,307.673523 
	C770.940613,310.263214 776.127686,314.986755 777.180603,322.857605 
	C778.384705,331.859436 777.043762,340.222290 768.542847,345.719055 
	C767.576965,346.343597 766.673401,347.064453 765.767151,347.721649 
	C765.819641,350.060913 767.565247,351.355560 768.694214,353.356201 
M735.393311,320.021973 
	C735.381470,324.997864 735.361572,329.973755 735.362305,334.949646 
	C735.362549,336.640625 735.354675,338.726288 737.548218,338.770813 
	C744.465271,338.911316 751.527649,340.177032 758.217529,337.513824 
	C762.642456,335.752258 763.958618,331.902924 763.890442,327.384857 
	C763.826965,323.176239 762.327087,319.759155 758.212708,318.360931 
	C751.301392,316.012207 744.133545,316.914093 737.045288,317.412018 
	C736.490845,317.450989 736.010681,318.547028 735.393311,320.021973 
z"/>
<path fill="#FFFFFF" opacity="1.000000" stroke="none" 
	d="
M504.727722,314.065552 
	C504.724792,305.692963 504.724792,305.683472 512.610107,305.679962 
	C525.101074,305.674408 537.593445,305.791656 550.082092,305.621521 
	C553.983398,305.568390 555.419922,306.924530 555.323303,310.835266 
	C555.234070,314.444244 554.803223,317.034454 550.284180,316.964417 
	C541.626038,316.830292 532.960510,317.087616 524.305542,316.875854 
	C519.862427,316.767090 518.102356,318.153473 518.267639,322.886292 
	C518.571838,331.600708 518.306396,331.628387 527.202332,331.609344 
	C533.363647,331.596161 539.532532,331.693390 545.683044,331.411835 
	C549.203735,331.250702 550.558228,332.494690 550.330261,335.969421 
	C550.126648,339.074554 551.021667,342.519440 545.873840,342.370270 
	C538.385498,342.153259 530.883728,342.427399 523.392944,342.257050 
	C519.906982,342.177795 518.210449,343.070862 518.303406,346.984436 
	C518.594849,359.257751 516.949829,357.532990 528.940552,357.662048 
	C536.434265,357.742737 543.933289,357.825165 551.422546,357.627380 
	C555.485168,357.520111 556.086731,359.756989 556.067688,362.979584 
	C556.049316,366.085388 555.781250,368.496918 551.586426,368.451538 
	C537.431702,368.298431 523.273254,368.296021 509.118561,368.450836 
	C504.936066,368.496582 504.681519,366.170776 504.693207,363.020111 
	C504.753174,346.865295 504.725952,330.710175 504.727722,314.065552 
z"/>
<path fill="#FFFFFF" opacity="1.000000" stroke="none" 
	d="
M835.867615,305.683228 
	C843.978027,305.731293 843.851929,305.834930 843.546936,312.579163 
	C843.377930,316.317566 841.536987,316.980591 838.477722,316.958252 
	C829.987244,316.896271 821.491821,317.085297 813.007202,316.851379 
	C808.723022,316.733276 806.730835,318.142456 807.310242,322.580750 
	C807.481201,323.890106 807.460571,325.255829 807.308228,326.570251 
	C806.842468,330.587219 808.692505,331.791351 812.524536,331.671692 
	C820.009766,331.437988 827.510254,331.703461 834.996460,331.486786 
	C838.457825,331.386566 839.402100,332.971466 839.203613,335.995331 
	C839.015625,338.860779 840.001099,342.362671 835.152100,342.318542 
	C827.494324,342.248810 819.831543,342.441711 812.178528,342.237823 
	C808.486206,342.139465 807.190247,343.435333 807.270203,347.143463 
	C807.536560,359.502869 805.959167,357.502655 817.442078,357.659790 
	C825.099182,357.764618 832.759460,357.748962 840.416870,357.661011 
	C843.272705,357.628204 845.140564,358.596252 844.641541,361.633484 
	C844.198730,364.328888 845.887207,368.459900 840.502136,368.422913 
	C826.351318,368.325653 812.199097,368.338196 798.048096,368.420166 
	C794.679932,368.439667 793.766968,366.750793 793.772461,363.770386 
	C793.805115,345.956207 793.858398,328.141296 793.708862,310.328247 
	C793.675598,306.362701 795.550293,305.618011 798.925293,305.646057 
	C811.078247,305.747040 823.232422,305.684570 835.867615,305.683228 
z"/>
<path fill="#FFFFFF" opacity="1.000000" stroke="none" 
	d="
M369.098419,339.125427 
	C366.295288,340.854279 364.381409,343.360657 360.911560,344.094025 
	C359.895874,339.736389 361.988525,335.965881 362.543396,332.029144 
	C363.891296,322.466583 364.976990,312.884521 364.666656,303.199432 
	C364.590881,300.835175 364.604919,298.621429 367.015594,297.076447 
	C378.094177,289.976257 389.869568,284.867218 403.123138,283.500092 
	C406.311066,283.171265 407.021484,284.383606 407.449280,287.243622 
	C409.009277,297.672668 409.163910,308.090210 408.228699,318.575317 
	C407.940002,321.811920 406.387054,323.171173 403.351410,323.796356 
	C390.942169,326.352051 379.686646,331.574219 369.098419,339.125427 
z"/>
<path fill="#FFFFFF" opacity="1.000000" stroke="none" 
	d="
M246.959320,284.782227 
	C256.808502,287.265411 265.693237,290.946014 273.809448,296.378357 
	C275.455231,297.479889 277.343994,298.467407 277.306061,300.873169 
	C277.077454,315.364563 278.812653,329.661438 282.018372,343.848633 
	C279.204895,344.528656 277.878632,342.734344 276.394409,341.613403 
	C264.946381,332.967682 252.468399,326.468201 238.337387,323.578674 
	C235.203308,322.937805 234.160110,321.225800 233.974167,318.494263 
	C233.249191,307.845764 233.133774,297.213898 234.641144,286.601685 
	C234.963135,284.334625 235.831329,283.233734 238.154083,283.545502 
	C240.953705,283.921295 243.751007,284.314453 246.959320,284.782227 
z"/>
<path fill="#FFFFFF" opacity="1.000000" stroke="none" 
	d="
M624.255981,327.163116 
	C618.702759,339.684235 612.993225,351.735626 608.008789,364.079803 
	C605.744751,369.686768 601.595154,368.056152 597.694031,368.415497 
	C594.071594,368.749176 592.026184,367.448547 590.488708,363.915375 
	C582.848938,346.358337 574.895020,328.938049 567.077209,311.458221 
	C566.413452,309.974121 565.302307,308.588318 565.787231,306.382477 
	C569.616272,304.951263 573.741943,305.750305 577.771729,305.864624 
	C580.008606,305.928101 580.380432,308.192993 581.101868,309.811249 
	C586.592346,322.126984 592.033691,334.464661 597.518677,346.782837 
	C597.980042,347.818848 598.649536,348.762146 599.248291,349.793121 
	C601.542908,349.083588 601.744812,347.039551 602.431274,345.500702 
	C607.315247,334.553589 612.457214,323.699585 616.758972,312.524109 
	C618.862732,307.058685 621.764343,304.706268 627.451355,305.669800 
	C629.188965,305.964172 631.112976,305.246643 633.207520,307.097382 
	C630.319031,313.559937 627.357300,320.186401 624.255981,327.163116 
z"/>
</svg>