<svg version="1.1" id="Layer_1" xmlns="http://www.w3.org/2000/svg" xmlns:xlink="http://www.w3.org/1999/xlink" x="0px" y="0px"
	 width="100%" viewBox="530 240 480 460"  xml:space="preserve">
<path fill="#0176D3" opacity="1.000000" stroke="none" 
	d="
M789.830078,280.166962 
	C807.222290,302.914062 820.851318,327.126434 826.604126,355.166199 
	C832.765991,385.200012 828.708496,414.116608 816.738403,442.092438 
	C806.066406,467.034485 790.636414,488.837433 772.394287,508.754425 
	C771.396790,509.843567 770.256897,510.802307 768.695679,512.284790 
	C766.074585,509.561432 763.506165,507.036926 761.097717,504.368073 
	C738.899719,479.769958 722.146729,451.931854 713.235107,419.946106 
	C702.162720,380.204865 709.438904,342.784912 729.630798,307.418243 
	C740.105164,289.072083 752.743469,272.441864 769.322632,257.464386 
	C776.117188,264.971344 782.865784,272.427460 789.830078,280.166962 
z"/>
<path fill="#0176D3" opacity="1.000000" stroke="none" 
	d="
M873.503662,423.564056 
	C907.866760,407.680908 942.928894,407.276825 979.730835,415.887421 
	C967.584106,459.382935 944.574585,493.896912 904.564392,514.701904 
	C864.520081,535.524658 822.637451,535.779114 779.177124,522.295776 
	C786.868713,511.218811 793.818604,501.088593 800.893555,491.046478 
	C815.640015,470.115631 831.779785,450.427399 852.963684,435.594727 
	C859.339905,431.130188 866.414246,427.662872 873.503662,423.564056 
z"/>
<path fill="#0176D3" opacity="1.000000" stroke="none" 
	d="
M741.988525,526.951660 
	C693.524353,536.616516 648.583923,530.691528 609.438599,499.059082 
	C583.744446,478.296204 567.874939,450.904602 559.116028,419.248260 
	C558.898682,418.462616 558.926147,417.609283 558.721680,415.672058 
	C565.966980,414.303070 573.177429,412.490234 580.499695,411.640259 
	C603.905090,408.923401 627.100037,409.919922 649.633118,417.476349 
	C671.860718,424.930328 690.728821,437.703094 707.046387,454.446442 
	C726.709290,474.622437 741.499939,498.407501 757.992065,522.272949 
	C752.415344,523.920898 747.408142,525.400574 741.988525,526.951660 
z"/>
<path fill="#0176D3" opacity="1.000000" stroke="none" 
	d="
M847.207275,427.161072 
	C842.515076,430.603607 838.117188,433.840668 833.997559,436.872833 
	C835.836731,422.639374 838.022705,408.373596 839.406311,394.030426 
	C840.250549,385.279114 839.755310,376.404419 840.113281,367.595367 
	C840.183594,365.865295 840.909119,363.471802 842.174255,362.584137 
	C860.375732,349.813263 880.537598,342.143860 902.730225,340.009521 
	C903.698242,339.916412 904.683044,339.997589 906.473938,339.997589 
	C907.299255,350.606232 908.492554,360.993042 908.797852,371.405853 
	C909.050842,380.034729 908.018982,388.694580 908.027100,397.340271 
	C908.031128,401.672394 906.466187,403.247101 902.256714,403.966125 
	C882.259277,407.381897 864.074036,415.291809 847.207275,427.161072 
z"/>
<path fill="#0176D3" opacity="1.000000" stroke="none" 
	d="
M660.838623,345.146576 
	C672.282104,350.600372 683.354004,355.921204 694.404114,361.286896 
	C697.044861,362.569214 698.112061,364.630310 697.985413,367.710876 
	C697.064270,390.118317 698.872314,412.300201 703.853149,434.196075 
	C703.989990,434.797607 703.870483,435.457458 703.870483,437.003265 
	C682.046570,419.027863 658.239441,406.676605 630.385986,402.942139 
	C628.344177,381.783752 628.268311,360.945068 631.864014,338.854706 
	C641.719788,340.983124 651.089417,343.006561 660.838623,345.146576 
z"/>
<path fill="#1A2536" opacity="1.000000" stroke="none" 
	d="
M798.532593,611.458740 
	C811.863892,623.192383 815.557678,637.572327 810.140686,653.706116 
	C804.370605,670.891235 790.846008,679.001526 773.498535,680.845703 
	C761.531189,682.117920 750.002197,680.317505 739.561646,673.497925 
	C715.235229,657.608582 715.913818,622.627258 740.940002,607.873840 
	C758.449585,597.551453 782.164551,598.935242 798.532593,611.458740 
M737.984375,641.446655 
	C739.046204,656.368042 748.083069,665.881714 763.049683,667.834534 
	C777.899719,669.772156 791.067505,662.410645 794.886475,649.601685 
	C798.042603,639.016052 796.092163,629.104370 787.822998,621.634888 
	C777.922180,612.691589 766.106750,612.182739 754.111511,616.898865 
	C743.551697,621.050720 738.548157,629.395081 737.984375,641.446655 
z"/>
<path fill="#1A2536" opacity="1.000000" stroke="none" 
	d="
M831.812378,669.168823 
	C831.814209,646.718323 831.814209,624.737854 831.814209,602.342773 
	C833.574280,602.240784 835.154480,602.045166 836.730469,602.074219 
	C850.373352,602.326294 864.143188,601.546387 877.627380,603.153564 
	C897.246399,605.491821 907.376526,621.996643 901.116455,639.099792 
	C898.614929,645.934387 895.100708,649.377258 885.133545,654.565613 
	C891.213501,662.826477 897.259766,671.041504 903.859131,680.008057 
	C897.958130,680.008057 893.026672,680.162598 888.118530,679.893555 
	C886.969177,679.830566 885.644592,678.526855 884.833801,677.463623 
	C880.392151,671.639526 876.235046,665.591431 871.631958,659.902100 
	C870.410217,658.392029 868.006104,657.162048 866.065552,657.037170 
	C860.269592,656.664246 854.434265,656.903137 848.148132,656.903137 
	C848.148132,664.465149 848.148132,671.878906 848.148132,679.675781 
	C842.626587,679.675781 837.559631,679.675781 831.810547,679.675781 
	C831.810547,676.462280 831.810547,673.050598 831.812378,669.168823 
M850.757446,644.826416 
	C858.219666,644.568665 865.737183,644.788147 873.129761,643.930420 
	C882.041870,642.896362 886.773804,637.432861 886.810974,629.557495 
	C886.847778,621.767517 882.015686,616.099304 873.084229,615.291931 
	C864.892090,614.551453 856.580322,615.134705 847.887817,615.134705 
	C847.887817,624.372253 847.842529,633.475342 847.971008,642.575989 
	C847.981689,643.331421 849.167358,644.070374 850.757446,644.826416 
z"/>
<path fill="#1A2536" opacity="1.000000" stroke="none" 
	d="
M588.000000,614.701355 
	C580.718628,614.701660 573.937195,614.701660 566.887939,614.701660 
	C566.887939,621.358582 566.887939,627.461060 566.887939,634.192871 
	C580.143127,634.192871 593.498840,634.192871 607.075623,634.192871 
	C607.075623,638.584229 607.075623,642.352234 607.075623,646.627075 
	C593.740662,646.627075 580.523010,646.627075 566.871582,646.627075 
	C566.871582,653.642578 566.871582,660.163879 566.871582,667.079224 
	C582.507202,667.079224 598.100708,667.079224 614.044312,667.079224 
	C614.044312,671.528015 614.044312,675.594482 614.044312,679.765808 
	C592.830688,679.765808 571.750183,679.765808 550.413940,679.765808 
	C550.413940,653.825745 550.413940,628.128174 550.413940,602.181519 
	C571.460938,602.181519 592.202148,602.181519 613.095886,602.181519 
	C613.095886,606.198914 613.095886,610.128235 613.095886,614.701050 
	C604.724915,614.701050 596.612488,614.701050 588.000000,614.701355 
z"/>
<path fill="#1A2536" opacity="1.000000" stroke="none" 
	d="
M962.997559,646.978760 
	C955.192932,646.979187 947.887756,646.979187 940.255493,646.979187 
	C940.255493,653.831909 940.255493,660.392517 940.255493,667.410522 
	C956.048401,667.410522 971.632935,667.410522 987.514465,667.410522 
	C987.514465,671.746277 987.514465,675.629944 987.514465,679.799500 
	C966.214539,679.799500 945.144531,679.799500 923.923462,679.799500 
	C923.923462,653.856018 923.923462,628.074097 923.923462,602.148743 
	C944.845215,602.148743 965.488098,602.148743 986.516113,602.148743 
	C986.516113,606.163330 986.516113,610.064697 986.516113,614.572998 
	C971.205566,614.572998 955.818481,614.572998 940.276917,614.572998 
	C940.276917,621.418701 940.276917,627.661072 940.276917,634.302979 
	C953.534119,634.302979 966.491516,634.302979 979.804932,634.302979 
	C979.804932,638.586609 979.804932,642.476318 979.804932,646.978333 
	C974.379211,646.978333 968.938171,646.978333 962.997559,646.978760 
z"/>
<path fill="#1A2536" opacity="1.000000" stroke="none" 
	d="
M689.110718,658.248657 
	C686.109802,664.784607 683.393677,671.044434 680.285217,677.102966 
	C679.587769,678.462219 677.556274,679.900635 676.073547,679.973694 
	C663.323975,680.601379 663.329590,680.505554 657.993713,668.979004 
	C648.353088,648.153503 638.695862,627.335571 629.059021,606.508301 
	C628.508423,605.318298 628.079773,604.071899 627.254272,601.996704 
	C632.944763,601.996704 638.158325,601.805420 643.335205,602.156006 
	C644.385986,602.227173 645.612915,604.197510 646.226929,605.536133 
	C653.852234,622.157959 661.373474,638.827515 668.939819,655.476501 
	C669.679138,657.103027 670.540161,658.674255 671.689819,660.956116 
	C674.271057,655.572693 676.639771,650.843933 678.826111,646.032288 
	C684.741028,633.014587 690.712402,620.019226 696.362488,606.886414 
	C697.985413,603.114136 700.095459,601.553833 704.185120,601.965027 
	C707.642456,602.312683 711.162537,602.036621 715.351379,602.036621 
	C706.515015,620.951111 697.884338,639.425476 689.110718,658.248657 
z"/>
</svg>