<svg version="1.1" id="Layer_1" xmlns="http://www.w3.org/2000/svg" xmlns:xlink="http://www.w3.org/1999/xlink" x="0px" y="0px"
	 width="100%" viewBox="180 230 290 180" xml:space="preserve">
<path fill="#0176D3" opacity="1.000000" stroke="none" 
	d="
M308.108246,376.842712 
	C296.676208,361.961548 288.232056,345.987366 284.782654,327.779205 
	C279.232117,298.480103 287.978394,272.894562 305.756531,249.794510 
	C309.529846,244.891678 313.881805,240.536972 318.236725,236.168961 
	C320.150360,234.249527 321.642609,234.118820 323.682739,236.085312 
	C344.630402,256.276794 358.255035,280.119537 358.847717,309.806305 
	C359.254303,330.170807 352.465118,348.712036 341.666687,365.854218 
	C336.491180,374.070251 330.329834,381.475403 323.769409,388.601501 
	C321.592590,390.965973 319.966614,390.753784 318.071960,388.515381 
	C314.844086,384.701904 311.579315,380.919647 308.108246,376.842712 
z"/>
<path fill="#0176D3" opacity="1.000000" stroke="none" 
	d="
M338.449860,379.481995 
	C352.088257,359.194824 368.442902,342.581757 391.181702,333.166290 
	C409.687286,325.503662 428.685577,325.078705 448.031891,328.768768 
	C448.841400,328.923157 449.629730,329.226959 450.400757,329.530212 
	C450.848267,329.706207 451.241547,330.020020 452.342834,330.683929 
	C445.153961,355.763275 431.504700,376.214081 408.314545,388.958679 
	C383.224884,402.747162 356.632538,404.438660 328.445526,396.176880 
	C331.180695,389.697479 334.991364,384.894226 338.449860,379.481995 
z"/>
<path fill="#0176D3" opacity="1.000000" stroke="none" 
	d="
M270.102600,343.830505 
	C289.033203,357.439423 301.849976,375.660767 313.998108,395.972717 
	C288.470306,403.773071 264.338928,402.886322 240.818390,392.454834 
	C213.693024,380.424561 198.384323,358.424164 189.366592,329.981049 
	C218.761398,322.980316 245.394592,326.485016 270.102600,343.830505 
z"/>
<path fill="#0176D3" opacity="1.000000" stroke="none" 
	d="
M707.048584,329.407471 
	C709.081543,351.384186 699.919312,364.810059 680.524658,368.819092 
	C659.268616,373.212860 640.618408,361.142822 637.329834,340.864258 
	C635.219604,327.851776 643.168823,313.615570 656.049866,308.136444 
	C667.143066,303.417786 678.480835,303.449310 689.527954,308.327515 
	C698.590271,312.329315 704.305481,319.445679 707.048584,329.407471 
M689.917175,324.678406 
	C682.333923,315.945679 670.107056,313.823273 660.627991,319.594177 
	C652.522095,324.529083 648.852356,335.470032 652.257202,344.550507 
	C656.565552,356.040436 670.741760,361.224396 682.742371,355.698242 
	C693.549377,350.721771 696.988464,336.971924 689.917175,324.678406 
z"/>
<path fill="#0176D3" opacity="1.000000" stroke="none" 
	d="
M768.694214,353.356201 
	C772.070923,358.215790 775.998535,362.294159 778.541321,367.477325 
	C768.542908,370.143463 764.823303,368.904968 759.479309,361.476257 
	C758.604797,360.260529 757.345337,359.221588 756.803955,357.882568 
	C753.297241,349.209595 745.962524,350.018036 738.745483,350.346588 
	C736.123901,350.465912 735.341125,351.929474 735.357727,354.266388 
	C735.381409,357.596039 735.231445,360.929749 735.346558,364.255096 
	C735.449280,367.224915 734.221436,368.299316 731.239136,368.442261 
	C721.718811,368.898438 721.675415,368.959839 721.675720,359.633270 
	C721.676331,343.649200 721.805786,327.663513 721.601685,311.682068 
	C721.545288,307.267181 722.671082,305.397552 727.442810,305.589203 
	C735.920715,305.929749 744.422180,305.713104 752.913513,305.679047 
	C756.631287,305.664124 760.180359,306.438995 763.653992,307.673523 
	C770.940613,310.263214 776.127686,314.986755 777.180603,322.857605 
	C778.384705,331.859436 777.043762,340.222290 768.542847,345.719055 
	C767.576965,346.343597 766.673401,347.064453 765.767151,347.721649 
	C765.819641,350.060913 767.565247,351.355560 768.694214,353.356201 
M735.393311,320.021973 
	C735.381470,324.997864 735.361572,329.973755 735.362305,334.949646 
	C735.362549,336.640625 735.354675,338.726288 737.548218,338.770813 
	C744.465271,338.911316 751.527649,340.177032 758.217529,337.513824 
	C762.642456,335.752258 763.958618,331.902924 763.890442,327.384857 
	C763.826965,323.176239 762.327087,319.759155 758.212708,318.360931 
	C751.301392,316.012207 744.133545,316.914093 737.045288,317.412018 
	C736.490845,317.450989 736.010681,318.547028 735.393311,320.021973 
z"/>
</svg>
